# xmcd
#
# Track frame offsets:
#	150
#	21299
#	39705
#	72420
#	96086
#	119254
#	135566
#	158220
#	181482
#	204511
#	231596
#	253181
#	272134
#	293531
#	307882
#	330789
#
# Disc length: 4756 seconds
#
# Revision: 1
# Processed by: cddbd v1.5.1PL0 Copyright (c) Steve Scherf et al.
# Submitted via: audiograbber 1.83.01
#
DISCID=e5129210
DTITLE=Robert Cray - The Ultimate Collection [CD2]
DYEAR=2004
DGENRE=Blues
TTITLE0=The Things You Do To Me
TTITLE1=Bouncin' Back
TTITLE2=I Was Warned
TTITLE3=He Don't Live Here Anymore
TTITLE4=Our Last Time
TTITLE5=You're Gonna Need Me
TTITLE6=1040 Blues
TTITLE7=Passing By
TTITLE8=I Shiver
TTITLE9=Moan
TTITLE10=Steppin' Out
TTITLE11=Jealous Love
TTITLE12=Never Mattered Much
TTITLE13=Trick Or Treat
TTITLE14=I Can't Quit
TTITLE15=Nothing Against You
EXTD=
EXTT0=
EXTT1=
EXTT2=
EXTT3=
EXTT4=
EXTT5=
EXTT6=
EXTT7=
EXTT8=
EXTT9=
EXTT10=
EXTT11=
EXTT12=
EXTT13=
EXTT14=
EXTT15=
PLAYORDER=
